# xmcd
#
# Track frame offsets:
#	150
#	10267
#	23085
#	37764
#	50735
#	62476
#	74971
#	89273
#	105003
#	116305
#	129314
#	144447
#	159156
#
# Disc length: 2313 seconds
#
# Revision: 1
# Processed by: cddbd v1.5.1PL0 Copyright (c) Steve Scherf et al.
# Submitted via: audiograbber 1.83.01
#
DISCID=9b09070d
DTITLE=Joy Adams - But Wait, There's More
DYEAR=2002
DGENRE=Comedy
TTITLE0=But Wait, There's More
TTITLE1=Still Gonna Die
TTITLE2=Ode to the Bathroom Scales
TTITLE3=One Size Fits All
TTITLE4=Everybody Wants to go to Heaven
TTITLE5=The Snorer
TTITLE6=Too Old to Cut the Mustard Anymore
TTITLE7=The Bomb
TTITLE8=The Missus
TTITLE9=Every Man I Love is Either Married Gay or Dead
TTITLE10=The Agitator
TTITLE11=Life's a Bugger
TTITLE12=Love in a Fowlhouse
EXTD=
EXTT0=
EXTT1=
EXTT2=
EXTT3=
EXTT4=
EXTT5=
EXTT6=
EXTT7=
EXTT8=
EXTT9=
EXTT10=
EXTT11=
EXTT12=
PLAYORDER=
